<svg id="Layer_1" data-name="Layer 1" xmlns="http://www.w3.org/2000/svg" xmlns:xlink="http://www.w3.org/1999/xlink" viewBox="0 0 400.7 117.45"><defs><style>.cls-1{fill:url(#linear-gradient);}.cls-2{fill:url(#linear-gradient-2);}.cls-3{fill:url(#linear-gradient-3);}.cls-4{fill:url(#linear-gradient-4);}.cls-5{fill:url(#linear-gradient-5);}.cls-6{fill:url(#linear-gradient-6);}.cls-7{fill:#e81c3d;}.cls-8{fill:#ffcc04;}.cls-9{fill:#f48220;}.cls-10{fill:#606464;}.cls-11{fill:#e6203e;fill-rule:evenodd;}</style><linearGradient id="linear-gradient" x1="-14608.23" y1="52.43" x2="-14633.45" y2="52.43" gradientTransform="matrix(-1, 0, 0, 1, -14581.1, 0)" gradientUnits="userSpaceOnUse"><stop offset="0" stop-color="#600f40"/><stop offset="0.25" stop-color="#9c1c26"/><stop offset="0.75" stop-color="#e46626"/><stop offset="1" stop-color="#f68a25"/></linearGradient><linearGradient id="linear-gradient-2" x1="-14615.86" y1="57.22" x2="-14635.07" y2="57.22" xlink:href="#linear-gradient"/><linearGradient id="linear-gradient-3" x1="-14626.92" y1="58.06" x2="-14637.18" y2="58.06" xlink:href="#linear-gradient"/><linearGradient id="linear-gradient-4" x1="-14627.01" y1="46.52" x2="-14652.24" y2="46.52" gradientTransform="matrix(-1, 0, 0, 1, -14581.1, 0)" gradientUnits="userSpaceOnUse"><stop offset="0.01" stop-color="#f68a25"/><stop offset="0.25" stop-color="#e46626"/><stop offset="0.75" stop-color="#9c1c26"/><stop offset="1" stop-color="#600f40"/></linearGradient><linearGradient id="linear-gradient-5" x1="-14625.4" y1="41.73" x2="-14644.61" y2="41.73" xlink:href="#linear-gradient-4"/><linearGradient id="linear-gradient-6" x1="-14623.28" y1="40.89" x2="-14633.55" y2="40.89" xlink:href="#linear-gradient-4"/></defs><path class="cls-1" d="M52.36,50.65c-.56.4-.66,1.14-1.06,1.69-2.25,3.07-6.2,2.09-9.31,1.2-4.64-1.33-9.05-3.52-13.71-4.83-.3,0-1,4.5-1.14,5.14,4.73.26,9.33,1.64,14,2.1S51.21,56.47,52.36,50.65Z"/><path class="cls-2" d="M53.42,49.41c-.32,0-.18.4-.16.6.44,4.56-2.83,5.82-6.55,7.11-3.91,1.36-8.07,2.09-11.92,3.64-.28.4,1.65,3.55,1.7,4.27,3.45-2,7.2-3.53,10.7-5.47C51.06,57.4,55.56,54.63,53.42,49.41Z"/><path class="cls-3" d="M49.53,68c1.35-3.66,3.62-6.94,5.15-10.52,1.16-2.71,2.45-6.2.07-8.65-.25-.26-1.08-1-1.33-.79,3.14,3,1.06,6.14-.92,9-.82,1.2-6.67,8.35-6.68,8.91,0,.32,1.64,1.16,2,1.36S49.3,68.2,49.53,68Z"/><path class="cls-4" d="M45.92,48.3c.55-.4.65-1.14,1-1.69,2.25-3.07,6.2-2.09,9.31-1.2,4.65,1.33,9.06,3.52,13.71,4.83.31,0,1-4.5,1.15-5.14-4.74-.27-9.34-1.64-14-2.11S47.07,42.47,45.92,48.3Z"/><path class="cls-5" d="M44.86,49.54c.31,0,.17-.4.15-.6-.44-4.57,2.83-5.82,6.56-7.12,3.91-1.35,8.06-2.08,11.91-3.63.28-.4-1.64-3.56-1.69-4.27-3.46,2-7.21,3.52-10.7,5.47C47.22,41.55,42.71,44.32,44.86,49.54Z"/><path class="cls-6" d="M48.74,30.91c-1.34,3.66-3.61,6.93-5.15,10.52-1.16,2.71-2.44,6.2-.06,8.65.25.25,1.07,1,1.33.79-3.15-3-1.06-6.15.91-9,.83-1.2,6.68-8.35,6.68-8.91,0-.33-1.63-1.17-2-1.36S49,30.74,48.74,30.91Z"/><path class="cls-7" d="M49.14,80.54A31.14,31.14,0,0,1,18.06,49.33,31.08,31.08,0,1,1,71.11,71.4,30.78,30.78,0,0,1,49.14,80.54Zm0-60.54A29.34,29.34,0,1,0,78.35,49.33,29.3,29.3,0,0,0,49.14,20Z"/><path class="cls-8" d="M49.14,82.41a33,33,0,0,1-30.35-20.2A33,33,0,0,1,16.2,49.33h1.86a31.08,31.08,0,1,0,62.15,0h1.87A33.11,33.11,0,0,1,62,79.81,32.54,32.54,0,0,1,49.14,82.41Z"/><path class="cls-9" d="M82.08,49.33h-.69A32.08,32.08,0,0,0,49.31,17.14a31.93,31.93,0,0,0-22.68,9.43,32.19,32.19,0,0,0-6.87,10.24,32.12,32.12,0,0,0-2.88,12.52H16.2a32.8,32.8,0,0,1,2.93-12.78A32.94,32.94,0,0,1,36.56,19a32.7,32.7,0,0,1,25.51,0,32.93,32.93,0,0,1,20,30.29Z"/><path class="cls-7" d="M98.87,71.64h4.61a3.26,3.26,0,1,1,0,6.51h-2.36v4H98.87Zm2.25,2.24v2h2.36a1,1,0,0,0,1-1,1,1,0,0,0-1-1Z"/><path class="cls-7" d="M116.59,78.15h-1v4h-2.25V71.64H118A3.25,3.25,0,0,1,119.06,78l2.3,4.24h-2.57Zm-1-4.27v2H118a1,1,0,0,0,1-1,1,1,0,0,0-1-1Z"/><path class="cls-7" d="M128.08,71.64h7.19v2.24h-4.94v1.8H135v2.24h-4.71v2h5.16v2.25h-7.41Z"/><path class="cls-7" d="M149.5,74.27a3.26,3.26,0,1,0,.24,5.09l1.87,1.31a5.5,5.5,0,1,1-.33-7.84Z"/><path class="cls-7" d="M157.85,71.64h2.25V82.19h-2.25Z"/><path class="cls-7" d="M168.57,79.63a2.46,2.46,0,0,0,1.51.52c.88,0,1.52-.4,1.52-1a.88.88,0,0,0-.64-.88l-1.87-.54a3,3,0,0,1-2.11-3,3.35,3.35,0,0,1,3.5-3.29,3.91,3.91,0,0,1,2.88,1.21l-1.74,1.45a1.67,1.67,0,0,0-1.15-.42,1.12,1.12,0,0,0-1.25,1.06.86.86,0,0,0,.65.87l1.88.54a3,3,0,0,1,2.11,3,3.47,3.47,0,0,1-3.72,3.27A4.43,4.43,0,0,1,166.79,81Z"/><path class="cls-7" d="M181,71.64h2.24V82.19H181Z"/><path class="cls-7" d="M195.47,71.41A5.5,5.5,0,1,1,190,76.92,5.51,5.51,0,0,1,195.47,71.41Zm0,8.76a3.26,3.26,0,1,0-3.25-3.25A3.26,3.26,0,0,0,195.46,80.17Z"/><path class="cls-7" d="M210,74.08v8.11h-2.25V71.64h3.4l4.23,7.82V71.64h2.25V82.19h-3.23Z"/><path class="cls-7" d="M233.58,71.64h8.08v2.24h-2.92v8.31h-2.25V73.88h-2.91Z"/><path class="cls-7" d="M248.11,71.64h7.18v2.24h-4.94v1.8h4.72v2.24h-4.72v2h5.17v2.25h-7.41Z"/><path class="cls-7" d="M269.52,74.27a3.26,3.26,0,1,0,.24,5.09l1.87,1.31a5.5,5.5,0,1,1-.33-7.84Z"/><path class="cls-7" d="M284.83,77.7h-4.71v4.49h-2.25V71.64h2.25v3.81h4.71V71.64h2.25V82.19h-2.25Z"/><path class="cls-7" d="M296.52,74.08v8.11h-2.24V71.64h3.39l4.24,7.82V71.64h2.24V82.19h-3.23Z"/><path class="cls-7" d="M316.56,71.41a5.5,5.5,0,1,1-5.49,5.51A5.51,5.51,0,0,1,316.56,71.41Zm0,8.76a3.26,3.26,0,1,0-3.24-3.25A3.27,3.27,0,0,0,316.54,80.17Z"/><path class="cls-7" d="M328.85,71.64h2.24v8.3h4.49v2.25h-6.73Z"/><path class="cls-7" d="M347,71.41a5.5,5.5,0,1,1-5.49,5.51A5.51,5.51,0,0,1,347,71.41Zm0,8.76a3.26,3.26,0,1,0-3.24-3.25A3.27,3.27,0,0,0,347,80.17Z"/><path class="cls-7" d="M366.68,81.87a5.49,5.49,0,0,1-7.87-5,5.49,5.49,0,0,1,9.42-3.85l-1.49,1.71a3.25,3.25,0,1,0-.08,4.37v-1h-2V75.9h4.27v5.75h-1.8Z"/><path class="cls-7" d="M379.64,75.65l2.44-4h2.62l-3.82,6.27v4.28h-2.24V78.28l-4-6.64h2.61Z"/><path class="cls-7" d="M108.29,50a4.22,4.22,0,0,0,4.34,3.89A4.31,4.31,0,0,0,117,49.53V16.45h9.73V49.53a14.12,14.12,0,0,1-27.95,2.79Z"/><path class="cls-7" d="M152.19,38l22.9,24.19H161.53l-15.95-17v17h-9.73V16.45h9.73V30.91l13.88-14.46h13.36Z"/><path class="cls-7" d="M198,16.45h13.88l11.86,32.82,12-32.82h13.82V62.17h-9.73V33.64L229.43,62.17H218.08L207.71,33.83V62.17H198Z"/><path class="cls-7" d="M270.61,16.45H282l16,45.72H287.54l-3.37-9.72H268.34L265,62.17H254.66Zm1.17,26.27h9l-4.47-13Z"/><path class="cls-7" d="M303,16.45h9.73V62.17H303Z"/><path class="cls-7" d="M331.9,27V62.17h-9.73V16.45h14.72l18.35,33.92V16.45H365V62.17H351Z"/><path class="cls-7" d="M375,16.45h9.73V62.17H375Z"/><path class="cls-10" d="M150.58,91.89l-3.25,9.32h2.1l.68-2h3.23l.68,2h2.13l-3.26-9.32Zm.23,5.35.93-2.65.91,2.65Z"/><path class="cls-10" d="M214.23,97.64H216v.88a2.89,2.89,0,1,1,.07-3.85l1.32-1.51a4.85,4.85,0,1,0-1.38,7.77l.39-.2H218V95.66h-3.76Z"/><path class="cls-10" d="M227.36,94.77a2.89,2.89,0,0,0-2.88-2.88h-4.07v9.32h2V97.64h.89l1.94,3.57h2.27l-2-3.74A2.87,2.87,0,0,0,227.36,94.77Zm-2.88.89h-2.09V93.87h2.09a.9.9,0,1,1,0,1.79Z"/><path class="cls-10" d="M234.08,91.69A4.86,4.86,0,1,0,239,96.55,4.86,4.86,0,0,0,234.08,91.69Zm0,7.73A2.88,2.88,0,1,1,237,96.55,2.86,2.86,0,0,1,234.07,99.42Z"/><path class="cls-10" d="M247.09,97.44a2,2,0,0,1-4,0V91.89h-2v5.55a4,4,0,0,0,7.93,0V91.89h-2Z"/><path class="cls-10" d="M255.66,91.89h-4.07v9.32h2V97.64h2.09a2.88,2.88,0,1,0,0-5.75Zm0,3.77h-2.09V93.87h2.09a.9.9,0,1,1,0,1.79Z"/><path class="cls-10" d="M269.59,99.42a2.88,2.88,0,1,1,1.69-5.2L272.85,93a4.85,4.85,0,1,0,.29,6.92l-1.65-1.16A2.84,2.84,0,0,1,269.59,99.42Z"/><path class="cls-10" d="M279.31,91.69a4.86,4.86,0,1,0,4.86,4.86A4.86,4.86,0,0,0,279.31,91.69Zm0,7.73a2.88,2.88,0,0,1,0-5.75,2.88,2.88,0,1,1,0,5.75Z"/><polygon class="cls-10" points="291.61 98.58 289.19 91.89 286.37 91.89 286.37 101.21 288.35 101.21 288.35 95.43 290.46 101.21 292.77 101.21 294.89 95.39 294.89 101.21 296.87 101.21 296.87 91.89 294.06 91.89 291.61 98.58"/><path class="cls-10" d="M303.57,91.89H299.5v9.32h2V97.64h2.09a2.88,2.88,0,1,0,0-5.75Zm0,3.77h-2.09V93.87h2.09a.9.9,0,1,1,0,1.79Z"/><path class="cls-10" d="M309.83,91.89l-3.25,9.32h2.1l.69-2h3.22l.69,2h2.13l-3.27-9.32Zm.24,5.35.92-2.65.92,2.65Z"/><polygon class="cls-10" points="323.82 98.8 320.08 91.89 317.08 91.89 317.08 101.21 319.07 101.21 319.07 94.04 322.95 101.21 325.81 101.21 325.81 91.89 323.82 91.89 323.82 98.8"/><polygon class="cls-10" points="333.93 91.89 331.78 95.43 329.64 91.89 327.32 91.89 330.89 97.76 330.89 101.21 332.87 101.21 332.87 97.43 336.24 91.89 333.93 91.89"/><polygon class="cls-11" points="178.55 92.18 178.55 92.14 178.53 92.11 178.52 92.1 178.49 92.08 178.42 92.08 178.4 92.08 178.36 92.08 178.28 92.09 178.15 92.12 178.06 92.15 177.97 92.19 177.92 92.21 177.83 92.26 177.72 92.33 177.71 92.34 177.66 92.38 177.65 92.39 177.64 92.39 177.62 92.41 177.61 92.42 177.6 92.43 177.59 92.44 177.57 92.46 177.55 92.47 177.51 92.51 176.22 98.41 176.21 98.46 176.19 98.49 176.18 98.5 176.17 98.51 176.14 98.53 176.11 98.54 176.08 98.53 176.06 98.51 176.04 98.49 176.02 98.44 176.02 98.41 173.93 92.34 173.91 92.29 173.87 92.21 173.86 92.18 173.83 92.15 173.81 92.15 173.77 92.14 173.75 92.14 173.72 92.14 173.68 92.16 173.13 92.43 172.12 92.93 172.1 92.95 171.98 93 171.96 93.02 171.83 93.08 171.81 93.09 171.68 93.16 171.62 93.2 171.59 93.23 171.57 93.28 171.55 93.34 171.55 93.4 171.57 93.45 171.58 93.49 171.6 93.5 171.6 93.51 171.62 93.52 171.63 93.53 171.67 93.56 171.74 93.59 171.82 93.6 171.97 93.6 171.98 93.6 172.24 93.6 172.26 93.6 172.28 93.6 172.29 93.61 172.31 93.61 172.38 93.62 172.43 93.63 172.5 93.66 172.56 93.7 172.57 93.71 172.59 93.73 172.62 93.78 173.87 97.33 173.91 97.44 173.91 97.46 175.12 100.83 175.17 100.97 175.2 101.02 175.23 101.04 175.24 101.06 175.26 101.07 175.31 101.08 175.38 101.1 175.41 101.1 175.42 101.1 175.46 101.1 175.48 101.1 175.5 101.1 175.53 101.11 175.53 101.12 175.53 101.16 175.53 101.17 175.53 101.19 175.53 101.2 175.53 101.22 175.52 101.24 175.52 101.25 175.52 101.27 175.52 101.29 175.52 101.3 175.52 101.32 175.51 101.33 175.51 101.36 175.51 101.37 175.51 101.39 175.49 101.58 175.44 101.83 175.38 102.14 175.33 102.33 175.3 102.42 175.25 102.55 175.24 102.56 175.21 102.61 175.16 102.69 175.11 102.77 175.04 102.83 174.96 102.9 174.94 102.91 174.91 102.92 174.89 102.93 174.88 102.94 174.79 102.97 174.68 103 174.63 103 174.62 103.01 174.6 103.01 174.58 103 174.55 103 174.52 103 174.46 102.97 174.4 102.94 174.34 102.9 174.28 102.84 174.22 102.77 174.21 102.76 174.18 102.72 174.18 102.7 174.16 102.68 174.14 102.64 174.1 102.57 174.03 102.42 173.97 102.25 173.88 101.92 173.86 101.84 173.84 101.81 173.8 101.77 173.77 101.75 173.72 101.75 173.72 101.75 173.68 101.75 173.65 101.75 173.44 101.8 173.24 101.86 173.05 101.93 172.87 102 172.67 102.09 172.52 102.17 172.39 102.24 172.32 102.29 172.31 102.3 172.29 102.31 172.25 102.36 172.24 102.37 172.21 102.41 172.18 102.46 172.16 102.51 172.15 102.6 172.15 102.73 172.16 102.83 172.21 103.05 172.26 103.2 172.31 103.33 172.37 103.46 172.44 103.58 172.44 103.59 172.45 103.61 172.48 103.66 172.5 103.69 172.57 103.78 172.58 103.8 172.59 103.81 172.65 103.89 172.66 103.9 172.67 103.92 172.73 103.98 172.76 104.02 172.85 104.09 172.86 104.11 172.94 104.17 172.95 104.18 173.06 104.25 173.07 104.26 173.09 104.27 173.1 104.28 173.12 104.28 173.13 104.29 173.15 104.3 173.24 104.34 173.36 104.39 173.49 104.42 173.7 104.45 173.74 104.45 173.76 104.46 173.8 104.46 173.81 104.46 173.85 104.46 173.87 104.46 173.91 104.46 173.92 104.46 174.05 104.46 174.07 104.46 174.09 104.46 174.1 104.45 174.13 104.45 174.15 104.45 174.17 104.45 174.33 104.42 174.49 104.38 174.51 104.37 174.6 104.34 174.74 104.27 174.85 104.21 174.92 104.16 174.93 104.16 174.98 104.12 175.08 104.04 175.19 103.93 175.26 103.85 175.27 103.83 175.28 103.82 175.29 103.81 175.37 103.7 175.38 103.69 175.47 103.55 175.5 103.49 175.55 103.4 175.6 103.29 175.62 103.26 175.65 103.18 175.73 102.95 178.54 92.24 178.55 92.18"/><path class="cls-11" d="M191.59,100.39l.3-.19.14-.1h.05l.07-.06,0,0h0l0,0,.05-.05v0l0-.06h0l0,0v0l.11-.17.07-.15.06-.16.07-.22.06-.29.06-.27.05-.35v-.08h0v0h0v0h0v-.08h0v-.15h0v0h0v0h0v0h0v0h0v0h0v-.05h0v-.32h0v-1h0v-.09h0V96h0v-.09h0v0h0v-.22h0v0h0v0h0v-.16h0v-.13h0v-.08h0v0h0v0h0v0h0v-.13h0v0h0V94.6h0v0h0v0l0-.26v-.1l0-.18,0-.2,0-.16-.06-.17-.06-.14-.05-.11,0,0,0,0-.05-.08,0,0-.06-.07v0h0l0,0-.11-.13-.14-.14-.13-.12h0l-.05,0h0l-.06,0h0l-.19-.12-.09,0-.1,0-.13,0h-.3l-.1,0h0l0,0-.15,0-.08,0,0,0h0l-.05,0,0,0,0,0h0l-.09,0,0,0-.15.09-.45.3-.31.23h0l-.1.1,0,0h0l0,0h0l0,0-.1.11h0l-.08.11h0l-.06.1h0l-.11.18v0h0v0l0,0v0h0v0l0,.08-.06.14-.06.15,0,.13-.06.17-.09.34-.07.33-.06.39v0h0v.14h0v.15h0v0h0v0h0v.08h0v.18h0v.06h0v.32h0v.45h0v.11h0v.19h0v.19h0v.67h0v0h0v.13l0,.29,0,.17,0,.18.05.18,0,.15.06.17.07.17.08.16v0l0,.06v0l.09.17,0,0v0l.08.12,0,.07,0,0h0l.07.07,0,0,.07,0h0l.13.09.07,0,0,0,.11,0,.17.06.13,0H190l.09,0,.13,0,.11,0,.16-.06.2-.09.24-.11,0,0,0,0h0l.31-.17Zm-.31-1.73v0l-.07.33-.06.24-.07.24-.06.18-.08.17v0l0,0v0l0,0,0,.08h0l0,0v0h0l0,0,0,0h0l-.06,0,0,0h-.13l0,0,0,0,0,0h0l0,0,0,0h0l0-.06,0-.06v0h0l0,0,0,0,0-.08-.06-.16-.07-.21-.07-.24-.06-.26-.05-.32v-.2l0-.33V98h0v0h0v-.06h0v0h0v-.06h0v0h0v0h0v-.1h0v0h0v-.17h0v-.88h0V96.3h0v-.07h0v-.08h0V96h0V96h0v-.15h0v0h0v-.19h0v-.12h0v-.17h0l0-.31,0-.24.06-.31.07-.26.06-.21.07-.19.07-.18.08-.14.06-.09h0v0l0,0h0l0,0,0,0h0l.06,0h.11l.07,0,0,0,0,0h0l0,.05,0,0h0l0,0,0,.08,0,0,0,0v0l0,0,.08.2,0,.06,0,0,0,.14.07.23,0,.26.06.29V95l0,.37v.06h0v0h0v.06h0v0h0v.11h0v.1h0v0h0v0h0v.2h0v.07h0v.48h0V97h0v.12h0v.08h0v.08h0v.08h0v0h0v0h0v.15h0v0h0v0h0v0h0v.06h0v0h0V98h0v0h0v.13h0l0,.33v.15Z"/><polygon class="cls-11" points="196.06 93.92 196.07 93.91 196.16 93.79 196.18 93.78 196.19 93.77 196.2 93.75 196.21 93.74 196.23 93.71 196.24 93.7 196.27 93.68 196.27 93.67 196.28 93.66 196.36 93.58 196.47 93.49 196.48 93.48 196.59 93.41 196.69 93.35 196.75 93.32 196.84 93.3 196.92 93.28 197.02 93.28 197.07 93.29 197.13 93.31 197.15 93.31 197.18 93.33 197.24 93.36 197.29 93.4 197.34 93.45 197.41 93.55 197.44 93.6 197.45 93.63 197.49 93.72 197.5 93.76 197.53 93.83 197.56 94.1 197.56 94.12 197.57 94.14 197.57 94.16 197.57 94.17 197.57 94.22 197.58 94.23 197.58 94.35 197.57 94.37 197.57 94.4 197.57 94.41 197.57 94.44 197.56 94.45 197.56 94.48 197.56 94.5 197.56 94.52 197.56 94.54 197.56 94.57 197.56 94.58 197.56 94.61 197.55 94.63 197.55 94.66 197.55 94.67 197.55 94.7 197.54 94.72 197.54 94.74 197.54 94.75 197.54 94.79 197.54 94.8 197.54 94.83 197.53 94.84 197.53 94.87 197.53 94.89 197.53 94.92 197.53 94.93 197.53 94.96 197.52 94.97 197.52 95 197.52 95.02 197.52 95.05 197.52 95.06 197.52 95.09 197.51 95.11 197.51 95.14 197.51 95.15 197.51 95.18 197.51 95.19 197.51 95.22 197.5 95.24 197.5 95.27 197.5 95.28 197.5 95.31 197.5 95.32 197.5 95.36 197.49 95.37 197.49 95.4 197.49 95.41 197.49 95.44 197.49 95.45 197.49 95.48 197.48 95.5 197.48 95.53 197.48 95.54 197.48 95.57 197.47 95.59 197.47 95.61 197.47 95.63 197.47 95.66 197.47 95.67 197.47 95.7 197.47 95.72 197.47 95.75 197.46 95.76 197.46 95.79 197.46 95.8 197.46 95.83 197.46 95.85 197.46 95.88 197.45 95.89 197.45 95.92 197.45 95.94 197.45 95.96 197.44 95.98 197.44 96.01 197.44 96.02 197.44 96.05 197.44 96.06 197.44 96.1 197.43 96.11 197.43 96.14 197.43 96.15 197.43 96.18 197.43 96.19 197.43 96.23 197.42 96.24 197.42 96.27 197.42 96.29 197.42 96.31 197.42 96.33 197.42 96.36 197.41 96.37 197.41 96.4 197.41 96.41 197.41 96.44 197.41 96.46 197.41 96.49 197.4 96.5 197.4 96.53 197.4 96.54 197.4 96.58 197.4 96.59 197.4 96.62 197.39 96.63 197.39 96.66 197.39 96.68 197.39 96.71 197.38 96.72 197.38 96.75 197.38 96.76 197.38 96.8 197.38 96.81 197.38 96.83 197.38 96.85 197.38 96.88 197.37 96.89 197.37 96.92 197.37 96.94 197.37 96.97 197.37 96.98 197.37 97.01 197.36 97.03 197.36 97.05 197.36 97.07 197.36 97.1 197.35 97.11 197.35 97.14 197.35 97.16 197.35 97.18 197.35 97.2 197.35 97.23 197.34 97.24 197.34 97.27 197.34 97.28 197.34 97.32 197.34 97.33 197.34 97.36 197.33 97.37 197.33 97.4 197.33 97.42 197.33 97.45 197.33 97.46 197.33 97.49 197.32 97.5 197.32 97.53 197.32 97.55 197.32 97.58 197.31 97.59 197.31 97.62 197.31 97.63 197.31 97.67 197.31 97.68 197.31 97.7 197.31 97.72 197.31 97.75 197.3 97.76 197.3 97.8 197.3 97.81 197.3 97.84 197.29 97.85 197.29 97.88 197.29 97.9 197.29 97.92 197.29 97.94 197.29 97.97 197.29 97.98 197.29 98.02 197.28 98.03 197.28 98.06 197.28 98.07 197.28 98.1 197.28 98.11 197.28 98.14 197.27 98.16 197.27 98.19 197.27 98.2 197.27 98.23 197.26 98.25 197.26 98.27 197.26 98.29 197.26 98.32 197.26 98.33 197.26 98.36 197.25 98.37 197.25 98.41 197.25 98.42 197.25 98.45 197.25 98.46 197.25 98.49 197.24 98.5 197.24 98.54 197.24 98.55 197.24 98.58 197.24 98.59 197.24 98.62 197.23 98.64 197.23 98.67 197.23 98.68 197.23 98.71 197.23 98.72 197.23 98.75 197.22 98.77 197.22 98.8 197.22 98.81 197.22 98.84 197.22 98.86 197.22 98.89 197.21 98.9 197.21 98.93 197.21 98.94 197.21 98.97 197.21 98.99 197.21 99.02 197.2 99.03 197.2 99.06 197.2 99.07 197.2 99.1 197.19 99.12 197.19 99.14 197.19 99.16 197.19 99.19 197.19 99.2 197.19 99.23 197.19 99.25 197.19 99.28 197.18 99.29 197.18 99.32 197.18 99.33 197.18 99.36 197.17 99.38 197.17 99.41 197.17 99.42 197.17 99.45 197.17 99.47 197.17 99.5 197.16 99.51 197.16 99.54 197.16 99.55 197.16 99.58 197.16 99.59 197.16 99.63 197.15 99.64 197.15 99.67 197.15 99.68 197.15 99.71 197.15 99.73 197.15 99.76 197.14 99.77 197.14 99.8 197.14 99.81 197.14 99.84 197.14 99.86 197.14 99.89 197.13 99.9 197.13 99.93 197.13 99.94 197.13 99.97 197.13 99.99 197.13 100.02 197.12 100.03 197.12 100.06 197.12 100.08 197.12 100.11 197.12 100.12 197.12 100.15 197.11 100.16 197.11 100.19 197.11 100.21 197.11 100.23 197.1 100.25 197.1 100.28 197.1 100.29 197.1 100.32 197.1 100.34 197.1 100.36 197.09 100.38 197.09 100.41 197.09 100.42 197.09 100.45 197.09 100.47 197.09 100.5 197.08 100.51 197.08 100.54 197.08 100.56 197.08 100.58 197.08 100.6 197.08 100.63 197.07 100.64 197.07 100.67 197.07 100.68 197.07 100.72 197.07 100.73 197.07 100.76 197.06 100.77 197.06 100.8 197.06 100.81 197.06 100.85 197.06 100.86 197.06 100.89 197.05 100.9 197.05 100.93 197.05 100.95 197.05 101.03 197.06 101.06 197.08 101.09 197.08 101.1 197.09 101.11 197.11 101.11 197.17 101.13 197.23 101.12 197.3 101.1 197.39 101.06 199.04 100.11 199.06 100.09 199.07 100.07 199.08 100.03 199.08 99.97 199.08 99.96 199.08 99.94 199.07 99.9 199.06 99.89 199.05 99.88 199.05 99.87 199.04 99.86 198.99 99.84 198.95 99.84 198.91 99.83 198.75 99.81 198.68 99.8 198.66 99.8 198.65 99.78 198.65 99.73 198.66 99.71 198.66 99.68 198.66 99.67 198.66 99.64 198.66 99.62 198.66 99.59 198.66 99.57 198.66 99.54 198.67 99.53 198.67 99.5 198.67 99.48 198.67 99.45 198.68 99.44 198.68 99.4 198.68 99.39 198.68 99.36 198.68 99.34 198.68 99.31 198.69 99.3 198.69 99.27 198.69 99.25 198.69 99.22 198.69 99.21 198.69 99.18 198.7 99.16 198.7 99.13 198.7 99.11 198.7 99.08 198.7 99.07 198.7 99.04 198.71 99.02 198.71 98.99 198.71 98.98 198.71 98.94 198.71 98.93 198.71 98.9 198.72 98.89 198.72 98.85 198.72 98.84 198.72 98.81 198.72 98.79 198.72 98.76 198.73 98.75 198.73 98.71 198.73 98.7 198.73 98.67 198.73 98.65 198.73 98.62 198.74 98.61 198.74 98.58 198.74 98.56 198.74 98.53 198.74 98.52 198.74 98.48 198.75 98.47 198.75 98.44 198.75 98.42 198.75 98.39 198.75 98.38 198.75 98.35 198.76 98.33 198.76 98.3 198.76 98.29 198.76 98.25 198.77 98.24 198.77 98.21 198.77 98.19 198.77 98.16 198.77 98.15 198.77 98.11 198.78 98.1 198.78 98.07 198.78 98.06 198.78 98.03 198.78 98.01 198.78 97.98 198.79 97.96 198.79 97.93 198.79 97.92 198.79 97.89 198.79 97.87 198.79 97.84 198.8 97.82 198.8 97.79 198.8 97.78 198.8 97.75 198.8 97.73 198.8 97.7 198.81 97.69 198.81 97.65 198.81 97.64 198.81 97.61 198.81 97.6 198.81 97.56 198.82 97.55 198.82 97.52 198.82 97.5 198.82 97.47 198.82 97.46 198.82 97.42 198.83 97.41 198.83 97.38 198.83 97.36 198.83 97.33 198.83 97.32 198.83 97.29 198.84 97.27 198.84 97.24 198.84 97.23 198.84 97.19 198.84 97.18 198.84 97.15 198.85 97.14 198.85 97.1 198.85 97.09 198.85 97.06 198.86 97.04 198.86 97.01 198.86 97 198.86 96.97 198.86 96.95 198.86 96.92 198.87 96.9 198.87 96.87 198.87 96.86 198.87 96.83 198.87 96.81 198.87 96.78 198.88 96.77 198.88 96.73 198.88 96.72 198.88 96.69 198.88 96.68 198.88 96.64 198.89 96.63 198.89 96.6 198.89 96.58 198.89 96.55 198.89 96.54 198.89 96.5 198.9 96.49 198.9 96.46 198.9 96.44 198.9 96.41 198.9 96.4 198.9 96.36 198.91 96.35 198.91 96.32 198.91 96.31 198.91 96.28 198.91 96.26 198.91 96.23 198.92 96.22 198.92 96.18 198.92 96.17 198.92 96.14 198.93 96.12 198.93 96.09 198.93 96.08 198.93 96.04 198.93 96.03 198.93 96 198.94 95.98 198.94 95.95 198.94 95.94 198.94 95.91 198.94 95.89 198.94 95.86 198.94 95.85 198.94 95.81 198.95 95.8 198.95 95.77 198.95 95.75 198.95 95.72 198.96 95.71 198.96 95.68 198.96 95.66 198.96 95.63 198.96 95.62 198.96 95.58 198.97 95.57 198.97 95.54 198.97 95.52 198.97 95.49 198.97 95.48 198.97 95.44 198.98 95.43 198.98 95.4 198.98 95.39 198.98 95.36 198.98 95.34 198.98 95.31 198.99 95.29 198.99 95.26 198.99 95.25 198.99 95.22 198.99 95.2 198.99 95.17 199 95.15 199 95.12 199 95.11 199 95.08 199 95.06 199 95.03 199.01 95.02 199.01 94.98 199.01 94.97 199.01 94.94 199.01 94.93 199.01 94.89 199.02 94.88 199.02 94.84 199.02 94.83 199.02 94.8 199.02 94.79 199.02 94.75 199.03 94.74 199.03 94.71 199.03 94.69 199.03 94.66 199.04 94.65 199.04 94.62 199.04 94.6 199.04 94.57 199.04 94.56 199.04 94.52 199.05 94.51 199.05 94.48 199.05 94.47 199.05 94.43 199.05 94.42 199.05 94.39 199.06 94.37 199.06 94.34 199.06 94.33 199.06 94.29 199.06 94.28 199.06 94.21 199.07 94.19 199.07 94.13 199.07 94.12 199.07 94.05 199.07 94.03 199.07 93.94 199.08 93.93 199.08 93.74 199.07 93.73 199.07 93.69 199.07 93.68 199.07 93.64 199.05 93.5 199.02 93.38 198.97 93.26 198.9 93.09 198.89 93.08 198.88 93.06 198.87 93.05 198.86 93.03 198.85 93.02 198.84 93 198.83 92.98 198.82 92.97 198.74 92.83 198.73 92.81 198.72 92.8 198.69 92.75 198.68 92.74 198.65 92.7 198.54 92.54 198.53 92.53 198.51 92.52 198.51 92.51 198.49 92.5 198.49 92.48 198.47 92.47 198.46 92.45 198.45 92.44 198.44 92.43 198.43 92.42 198.42 92.41 198.32 92.31 198.31 92.29 198.19 92.18 198.18 92.17 198.09 92.11 198.08 92.11 198.01 92.06 197.93 92.02 197.82 91.97 197.73 91.94 197.7 91.94 197.68 91.94 197.65 91.94 197.63 91.93 197.56 91.93 197.55 91.94 197.52 91.94 197.49 91.94 197.42 91.96 197.35 91.98 197.27 92.03 197.22 92.06 197.21 92.07 197.16 92.12 197.09 92.19 197.08 92.2 196.98 92.3 196.97 92.31 196.87 92.42 196.86 92.43 196.81 92.47 196.8 92.49 196.76 92.53 196.75 92.54 196.71 92.58 196.7 92.59 196.66 92.64 196.65 92.65 196.61 92.69 196.6 92.7 196.56 92.75 196.55 92.76 196.51 92.8 196.5 92.81 196.46 92.85 196.45 92.87 196.41 92.91 196.4 92.92 196.36 92.96 196.35 92.97 196.31 93.02 196.3 93.03 196.25 93.08 196.24 93.09 196.13 93.2 196.13 93.21 196.03 93.31 196.01 93.33 195.92 93.42 195.9 93.43 195.87 93.45 195.83 93.46 195.81 93.46 195.77 93.45 195.74 93.42 195.72 93.38 195.44 92.69 195.37 92.54 195.33 92.47 195.32 92.46 195.3 92.43 195.29 92.42 195.28 92.4 195.26 92.39 195.26 92.38 195.25 92.37 195.22 92.34 195.16 92.3 195.15 92.29 195.13 92.28 195.09 92.27 195.03 92.25 194.95 92.23 194.9 92.23 194.81 92.25 194.73 92.27 194.66 92.29 193.61 92.78 193.16 92.99 193.07 93.04 193.01 93.08 192.97 93.13 192.95 93.15 192.94 93.16 192.93 93.18 192.91 93.22 192.91 93.27 192.93 93.31 192.95 93.34 192.98 93.38 193.03 93.41 193.07 93.43 193.12 93.44 193.18 93.44 193.19 93.44 193.3 93.44 193.31 93.44 193.41 93.44 193.42 93.44 193.51 93.44 193.53 93.43 193.55 93.44 193.61 93.44 193.63 93.44 193.65 93.44 193.72 93.45 193.78 93.47 193.85 93.51 193.93 93.57 193.98 93.62 193.99 93.63 194.02 93.67 194.03 93.68 194.04 93.71 194.08 93.76 194.12 93.86 194.15 93.97 194.17 94.08 194.18 94.13 194.18 94.14 194.18 94.19 194.18 94.21 194.18 95.12 194.19 95.13 194.19 96.12 194.19 96.14 194.19 97.13 194.19 97.15 194.19 98.14 194.2 98.15 194.2 99.14 194.2 99.16 194.2 100.15 194.2 100.17 194.2 101.05 194.21 101.07 194.21 101.08 194.22 101.11 194.22 101.12 194.24 101.14 194.25 101.15 194.26 101.17 194.28 101.18 194.32 101.19 194.37 101.19 194.4 101.18 194.45 101.16 194.51 101.13 194.53 101.11 194.57 101.09 194.63 101.05 194.67 101.02 194.74 100.98 194.77 100.96 194.84 100.91 194.87 100.89 194.94 100.85 194.97 100.83 195.04 100.78 195.07 100.76 195.14 100.72 195.17 100.69 195.24 100.65 195.27 100.63 195.34 100.59 195.37 100.56 195.42 100.53 195.49 100.49 195.57 100.43 195.58 100.42 195.63 100.38 195.66 100.36 195.69 100.32 195.7 100.29 195.71 100.25 195.71 94.97 195.72 94.96 195.72 94.91 195.72 94.89 195.72 94.84 195.72 94.83 195.72 94.81 195.73 94.8 195.73 94.78 195.73 94.77 195.73 94.75 195.74 94.71 195.74 94.69 195.76 94.52 195.78 94.43 195.8 94.37 195.84 94.28 195.92 94.14 195.99 94.02 196.06 93.92"/><path class="cls-11" d="M172.59,100.8l.21-.13.37-.22-.08-.1h0l-.16-.22h0v0h0l0,0h0l0,0,0,0,0-.06,0,0v0l-.07-.13,0,0,0-.13-.05-.15-.59-2.71L171,92.37l-.05-.19v0l0,0,0,0h-2.44l-.23.31h0l-.08.11h0l0,.06h0l0,.07h0l-.05.06h0l-.73,1h2.22l.05,0h0l0,0,0,0h0l0,0,0,0,0,.11.09.37,0,.14.16.69,0,.1v.07h0v.13l0,0-.05,0h0l-.09.06,0,0,0,0-.09,0h0l-.08,0h0l-.08,0,0,0-.09,0,0,0-.08,0,0,0-.08,0,0,0-.08,0h0l-.08,0,0,0-.08,0,0,0,0,0-.15.09-.18.1-.23.14-.22.16h0l-.08.06h0l-.09.08h0l-.09.08-.13.13v0h0v0h0l0,0h0l-.06.09v.06l0,0,0,0h0l0,.09,0,.11,0,.12,0,.16v0h0v.39h0v.12h0v.1h0l0,.16,0,.14,0,.13.05.16.06.12.08.17.08.14.1.16h0l0,0h0v0l.06.08v0l.07.08v0h0l.1.11.12.12h0l0,0h0l0,0h0l0,0,.11.09h0l.09.07h0l.15.1.15.09h0l0,0h0l.09,0,.05,0,.08,0,0,0,.08,0,.05,0,.16,0,.16,0,.18,0h.62l.08,0,.08,0,0,0h0l.06,0,.11-.11.08-.09h0l0-.05h0l0,0h0l0,0h0l0,0h0l0-.06h0l0,0,.05,0v0l0-.05,0,0h.06l0,0,0,0v0l.11.14h0l.14.2h0l.09.12v0l.15.18v0l0,0h0l0,0h.09l.06,0,.06,0,.27-.14Zm-1.78-1.57h0v0l0,.1,0,.08,0,.13,0,.05v0l0,0-.1.15h0l0,0h0l0,.06h0l0,0h0l0,0h0v0l-.06,0,0,0h0l0,0-.05,0h-.06l-.08,0-.05,0h0l-.07,0h0l-.17-.15h0l-.18-.18,0,0-.14-.13h0v0h0v0h0l0,0h0v0h0l-.12-.16L169,99V99h0v0l0,0v0h0l-.1-.22-.07-.19-.05-.21,0-.18V98h0v0h0v-.06h0v-.08h0v-.08l0-.16,0-.12,0-.1.06-.11.08-.1,0,0h0l.07-.06h0l0,0h0v0h0l.1-.07h0l.07,0,.16-.09h0l0,0,.3-.13.22-.09h.21l0,0,0,0h0v0l0,.05.28,1.27.12.55.1.54v.19Z"/><path class="cls-11" d="M201.58,101.16h.2l.1,0,.23-.06,1-.39.43-.16.08,0,.15-.07.11-.06.11-.07.06,0h0l.07-.06,0-.05h0l0,0,0-.06h0l.05-.07,0-.08,0-.08,0-.1,0-.1,0-.14v-.64h0V98.1h0v-.71h0V95.94h0V94.39h0V94l-.05-.2,0-.06,0,0,0-.07-.09-.21,0,0v0h0v0l0,0v0h0v-.1h0l0,0v0l0,0L204,93h0l-.11-.14h0v0l0,0h0l0,0h0l0,0h0l-.14-.14,0-.05h0l-.08-.08h0l-.05-.05h0l0,0h0l0,0h0v0l-.16-.14h0l-.32-.26v0l-.37-.26h0l-.25-.18h0l-.08-.06h0l-.17-.12h0l-.22-.17h0l-.15-.13-.12-.11-.11-.11h0l0,0h0v0l-.05-.06h0l0,0v0l-.05-.07,0,0v-.06l0-.06,0,0,.08-.09h0l0,0v-.09l0-.06,0,0,0,0h0l0,0h-.17l-.16.07-.25.13h0l-.05,0,0,0-.05,0,0,0,0,0,0,0h0l0,0,0,0h0l0,0H200l0,0h-.07l0,0h-.07l0,0-.11,0,0,0-.12.06h0l-.08,0-.08,0h0l0,0h0l0,0,0,0v.11l0,0,0,0,0,0h0l.24.26.17.19.13.14.11.1h0l.05,0,.13.12h0l.13.11h0l.12.1h0l.08.07h0l.2.15h0l.32.25h0l.36.29h0l.26.22h0v0h.07v0H202l.25.23.07.07.05.05v0l.05.06,0,.07v.14h0v0l0,.05-.05,0h0l-.16.12h-.06l0,0,0,0,0,0-.49.28-.1.07,0,0-.17.11-.08.06h0l0,0h0l-.14.12-.13.12h0l0,0h0v0h0l0,.06h0l-.07.09,0,0,0,0-.08.13,0,.1-.07.15-.07.17-.06.18-.09.29-.07.26-.06.32,0,.28,0,.18v.06h0v0h0v.13h0v0h0v0h0v0h0v0h0v0h0v0h0v.13h0v.16h0v.07h0v.19h0v.09h0v0h0v0h0v0l0,.23v.11l0,.17,0,.2.13.43.07.18.06.14,0,0v0h0v0l.08.13.07.12,0,.06v0l.07.08.06.07,0,0h0l0,0,0,0h0v0l.08.06.1,0,0,0h0l.09,0,.14,0h.31Zm0-1.9V99.1l0-.12v0h0v-.18h0v0h0v-.08h0v-.46h0V98h0V98h0v0h0v0h0v0h0v0h0v0h0v-.1h0v0h0v0h0v0h0v-.1h0v-.16l0-.2v0l0-.26v-.2l.09-.49.1-.47,0-.13,0-.07.06-.14,0-.07.07-.13.08-.11h0v0h0l.05-.06.05,0,0,0,.06,0,.08,0,.08,0h.09l.06,0,0,0,0,.05,0,0,0,0,0,0,0,.09V95h0v0h0v.63h0v.63h0V98.9h0v.47h0v.07h0v0h0v.07l0,.14,0,.11,0,.09,0,.06h0v0l0,0h0l0,0-.05.05h0l0,0h0l-.08,0-.1,0h-.23l-.09,0-.06,0-.07,0,0-.05-.09-.11-.07-.11-.06-.12,0-.12,0-.13,0-.2Z"/><polygon class="cls-11" points="187.38 100.24 187.4 100.22 187.41 100.21 187.41 100.19 187.41 100.15 187.4 100.11 187.38 100.07 187.35 100.06 187.32 100.04 187.11 100.01 187.09 100.01 187.08 100.01 187.06 100.01 187.05 100 186.97 100 186.95 99.98 186.93 99.97 186.91 99.94 186.89 99.89 186.88 99.82 186.88 99.73 186.88 99.72 186.88 99.69 186.89 99.68 186.89 99.65 186.89 99.64 186.89 99.61 186.89 99.6 186.89 99.57 186.9 99.56 186.9 99.53 186.9 99.52 186.9 99.5 186.9 99.48 186.9 99.46 186.91 99.44 186.91 99.42 186.91 99.4 186.91 99.38 186.91 99.36 186.91 99.34 186.92 99.33 186.92 99.3 186.92 99.29 186.92 99.26 186.92 99.25 186.92 99.22 186.93 99.21 186.93 99.19 186.93 99.17 186.93 99.14 186.93 99.13 186.93 99.11 186.94 99.09 186.94 99.07 186.94 99.05 186.94 99.03 186.94 99.02 186.94 98.99 186.95 98.98 186.95 98.95 186.95 98.94 186.95 98.91 186.96 98.9 186.96 98.87 186.96 98.86 186.96 98.83 186.96 98.82 186.96 98.8 186.97 98.78 186.97 98.76 186.97 98.74 186.97 98.72 186.97 98.7 186.97 98.68 186.97 98.66 186.97 98.64 186.98 98.63 186.98 98.6 186.98 98.59 186.98 98.56 186.99 98.55 186.99 98.52 186.99 98.51 186.99 98.48 186.99 98.47 186.99 98.45 187 98.43 187 98.41 187 98.39 187 98.37 187 98.35 187 98.33 187.01 98.31 187.01 98.29 187.01 98.28 187.01 98.25 187.01 98.24 187.01 98.21 187.02 98.2 187.02 98.17 187.02 98.16 187.02 98.13 187.02 98.12 187.02 98.09 187.03 98.08 187.03 98.06 187.03 98.04 187.03 98.02 187.03 98 187.03 97.98 187.04 97.96 187.04 97.94 187.04 97.92 187.04 97.9 187.04 97.89 187.04 97.86 187.05 97.85 187.05 97.82 187.05 97.81 187.05 97.78 187.06 97.77 187.06 97.75 187.06 97.73 187.06 97.7 187.06 97.69 187.06 97.67 187.07 97.65 187.07 97.63 187.07 97.61 187.07 97.59 187.07 97.58 187.07 97.55 187.07 97.54 187.07 97.51 187.08 97.5 187.08 97.47 187.08 97.46 187.08 97.43 187.09 97.42 187.09 97.39 187.09 97.38 187.09 97.35 187.09 97.34 187.09 97.32 187.1 97.3 187.1 97.28 187.1 97.26 187.1 97.24 187.1 97.22 187.1 97.2 187.11 97.18 187.11 97.16 187.11 97.15 187.11 97.12 187.11 97.11 187.11 97.08 187.12 97.07 187.12 97.04 187.12 97.03 187.12 97 187.13 96.99 187.13 96.97 187.13 96.95 187.13 96.92 187.13 96.91 187.13 96.89 187.13 96.87 187.13 96.85 187.14 96.83 187.14 96.81 187.14 96.8 187.14 96.77 187.15 96.76 187.15 96.73 187.15 96.72 187.15 96.69 187.15 96.68 187.15 96.65 187.16 96.64 187.16 96.61 187.16 96.6 187.16 96.58 187.16 96.56 187.16 96.54 187.16 96.52 187.16 96.5 187.17 96.48 187.17 96.46 187.17 96.44 187.17 96.42 187.18 96.41 187.18 96.38 187.18 96.37 187.18 96.34 187.18 96.33 187.18 96.3 187.19 96.29 187.19 96.26 187.19 96.25 187.19 96.23 187.19 96.21 187.19 96.18 187.2 96.17 187.2 96.15 187.2 96.13 187.2 96.11 187.2 96.1 187.2 96.07 187.21 96.06 187.21 96.03 187.21 96.02 187.21 95.99 187.21 95.98 187.21 95.95 187.22 95.94 187.22 95.92 187.22 95.9 187.22 95.87 187.22 95.86 187.22 95.83 187.23 95.82 187.23 95.8 187.23 95.78 187.23 95.75 187.23 95.74 187.23 95.72 187.24 95.7 187.24 95.68 187.24 95.67 187.24 95.64 187.25 95.63 187.25 95.6 187.25 95.59 187.25 95.56 187.25 95.55 187.25 95.52 187.25 95.51 187.25 95.48 187.26 95.47 187.26 95.44 187.26 95.43 187.26 95.41 187.27 95.39 187.27 95.37 187.27 95.36 187.27 95.33 187.27 95.32 187.27 95.29 187.28 95.28 187.28 95.25 187.28 95.24 187.28 95.21 187.28 95.2 187.28 95.17 187.29 95.16 187.29 95.13 187.29 95.12 187.29 95.09 187.29 95.08 187.29 95.06 187.3 95.04 187.3 95.02 187.3 95 187.3 94.98 187.3 94.96 187.3 94.94 187.31 94.93 187.31 94.9 187.31 94.89 187.31 94.86 187.31 94.84 187.31 94.82 187.32 94.81 187.32 94.78 187.32 94.77 187.32 94.75 187.32 94.73 187.32 94.7 187.33 94.69 187.33 94.67 187.33 94.65 187.33 94.63 187.34 94.61 187.34 94.59 187.34 94.58 187.34 94.55 187.34 94.54 187.34 94.51 187.34 94.5 187.34 94.47 187.35 94.46 187.35 94.44 187.35 94.42 187.35 94.39 187.36 94.38 187.36 94.36 187.36 94.34 187.36 94.32 187.36 94.3 187.36 94.28 187.37 94.27 187.37 94.24 187.37 94.22 187.37 94.14 187.37 94.13 187.37 94.05 187.36 94.04 187.36 94.02 187.36 94 187.36 93.98 187.36 93.97 187.36 93.95 187.35 93.93 187.35 93.91 187.34 93.83 187.34 93.8 187.3 93.63 187.25 93.45 187.24 93.44 187.21 93.34 187.15 93.21 187.08 93.06 187 92.93 186.92 92.8 186.91 92.79 186.9 92.77 186.82 92.67 186.81 92.66 186.71 92.53 186.59 92.41 186.57 92.4 186.56 92.39 186.54 92.38 186.53 92.36 186.52 92.35 186.5 92.34 186.49 92.33 186.47 92.31 186.38 92.24 186.37 92.23 186.26 92.15 186.24 92.14 186.22 92.13 186.18 92.11 186.16 92.09 186.08 92.06 185.99 92.04 185.96 92.03 185.92 92.03 185.84 92.03 185.82 92.03 185.79 92.03 185.78 92.03 185.75 92.03 185.65 92.06 185.54 92.1 185.44 92.16 185.35 92.22 185.34 92.23 185.33 92.24 185.32 92.25 185.31 92.26 185.29 92.28 185.28 92.29 185.26 92.3 185.25 92.31 185.24 92.33 185.22 92.33 185.21 92.35 185.2 92.36 185.18 92.38 185.17 92.38 185.15 92.4 185.14 92.41 185.13 92.42 185.11 92.43 185.1 92.45 185.09 92.45 185.07 92.47 185.06 92.48 185.04 92.5 185.03 92.5 185.02 92.52 185 92.53 184.99 92.54 184.98 92.55 184.96 92.57 184.95 92.58 184.93 92.59 184.92 92.6 184.91 92.62 184.89 92.63 184.88 92.64 184.86 92.65 184.85 92.67 184.84 92.67 184.82 92.69 184.81 92.7 184.79 92.71 184.78 92.72 184.77 92.74 184.75 92.75 184.74 92.76 184.73 92.77 184.71 92.79 184.7 92.79 184.68 92.81 184.67 92.82 184.66 92.83 184.64 92.84 184.63 92.86 184.62 92.87 184.6 92.88 184.59 92.89 184.57 92.91 184.56 92.92 184.55 92.93 184.53 92.94 184.52 92.96 184.5 92.97 184.49 92.98 184.48 92.99 184.46 93 184.45 93.01 184.43 93.03 184.42 93.04 184.41 93.05 184.39 93.06 184.38 93.08 184.37 93.08 184.35 93.1 184.34 93.11 184.32 93.13 184.31 93.13 184.3 93.15 184.28 93.16 184.27 93.17 184.26 93.18 184.24 93.2 184.23 93.21 184.21 93.22 184.2 93.23 184.19 93.25 184.17 93.25 184.16 93.27 184.15 93.28 184.13 93.29 184.12 93.31 183.99 93.15 183.98 93.14 183.95 93.1 183.94 93.09 183.89 93.02 183.88 93.01 183.68 92.74 183.67 92.73 183.64 92.68 183.63 92.67 183.62 92.66 183.53 92.54 183.51 92.53 183.5 92.51 183.49 92.5 183.48 92.48 183.44 92.45 183.44 92.44 183.41 92.41 183.4 92.4 183.27 92.27 183.26 92.26 183.22 92.23 183.21 92.22 183.14 92.17 183.08 92.14 182.98 92.11 182.89 92.09 182.83 92.09 182.82 92.09 182.75 92.09 182.66 92.11 182.58 92.14 182.43 92.21 182.38 92.24 182.37 92.25 182.36 92.26 182.35 92.27 182.33 92.28 182.23 92.38 182.22 92.39 182.13 92.48 182.12 92.49 182.03 92.58 182.02 92.58 181.93 92.67 181.92 92.68 181.83 92.77 181.81 92.78 181.61 92.99 181.6 93 181.39 93.2 181.38 93.21 181.36 93.22 181.29 93.28 181.28 93.29 181.26 93.31 181.23 93.31 181.21 93.3 181.18 93.27 181.14 93.21 181.12 93.17 181.1 93.15 181.01 92.95 180.94 92.81 180.84 92.65 180.77 92.54 180.76 92.53 180.71 92.47 180.7 92.46 180.69 92.45 180.61 92.36 180.59 92.34 180.53 92.29 180.52 92.28 180.47 92.24 180.44 92.22 180.39 92.21 180.34 92.21 180.27 92.23 180.22 92.25 179.94 92.43 179.8 92.5 179.75 92.53 179.73 92.54 179.71 92.56 179.67 92.58 179.64 92.59 179.59 92.61 179.57 92.63 179.53 92.65 179.5 92.67 179.46 92.68 179.44 92.7 178.62 93.11 178.58 93.13 178.57 93.14 178.56 93.15 178.54 93.17 178.53 93.17 178.53 93.18 178.52 93.19 178.5 93.22 178.49 93.26 178.49 93.29 178.48 93.3 178.49 93.33 178.49 93.35 178.5 93.38 178.52 93.42 178.56 93.44 178.61 93.46 178.65 93.46 178.67 93.47 178.82 93.47 178.83 93.47 178.88 93.47 178.89 93.47 178.92 93.47 179.03 93.49 179.16 93.53 179.25 93.58 179.33 93.65 179.38 93.7 179.39 93.71 179.44 93.78 179.47 93.83 179.47 93.84 179.51 93.93 179.57 94.12 179.62 94.28 179.63 94.33 179.63 94.34 179.63 94.36 179.63 94.38 179.64 94.39 179.64 101.05 179.64 101.08 179.66 101.11 179.7 101.14 179.74 101.15 179.77 101.14 179.83 101.13 179.93 101.08 181.12 100.36 181.18 100.33 181.18 94.39 181.19 94.33 181.19 94.29 181.23 94.15 181.29 94.01 181.32 93.97 181.35 93.91 181.42 93.82 181.43 93.81 181.51 93.73 181.52 93.71 181.6 93.65 181.61 93.64 181.72 93.57 181.76 93.54 181.77 93.53 181.82 93.52 181.89 93.5 181.97 93.5 182.01 93.51 182.07 93.53 182.13 93.57 182.18 93.61 182.21 93.64 182.21 93.65 182.25 93.7 182.26 93.72 182.29 93.76 182.3 93.79 182.31 93.81 182.35 93.92 182.38 94.02 182.45 94.27 182.45 94.31 182.46 94.33 182.46 94.79 182.46 94.8 182.46 95.76 182.46 95.78 182.46 96.74 182.47 96.76 182.47 97.72 182.47 97.73 182.47 98.69 182.47 98.71 182.47 99.67 182.48 99.68 182.48 100.64 182.48 100.65 182.48 101 182.48 101.02 182.49 101.04 182.5 101.06 182.52 101.08 182.54 101.08 182.57 101.08 182.6 101.08 182.65 101.06 182.66 101.05 182.7 101.02 182.74 101 182.76 100.99 182.77 100.98 182.81 100.95 182.83 100.94 182.87 100.92 182.89 100.9 182.93 100.88 182.95 100.86 182.99 100.84 183.01 100.82 183.04 100.8 183.08 100.78 183.1 100.77 183.12 100.76 183.15 100.73 183.17 100.72 183.21 100.69 183.23 100.68 183.27 100.66 183.29 100.64 183.33 100.62 183.35 100.6 183.39 100.58 183.41 100.57 183.44 100.54 183.48 100.52 183.5 100.51 183.52 100.5 183.55 100.47 183.58 100.46 183.61 100.44 183.63 100.42 183.67 100.4 183.69 100.38 183.73 100.36 183.75 100.34 183.79 100.32 183.81 100.31 183.85 100.28 183.93 100.22 183.96 100.19 183.98 100.15 183.99 100.13 183.99 100.1 184 100.08 184 99.42 184 99.41 184 97.77 184 97.76 184 96.12 184.01 96.11 184.01 94.46 184.01 94.45 184.01 94.39 184.01 94.37 184.01 94.35 184.03 94.27 184.06 94.18 184.08 94.11 184.12 94.03 184.17 93.92 184.24 93.83 184.31 93.72 184.38 93.64 184.42 93.6 184.43 93.6 184.46 93.56 184.52 93.51 184.53 93.5 184.63 93.44 184.68 93.41 184.7 93.39 184.78 93.36 184.85 93.34 184.92 93.33 184.94 93.33 184.96 93.32 185.03 93.32 185.05 93.33 185.07 93.33 185.09 93.33 185.1 93.33 185.18 93.35 185.26 93.39 185.32 93.43 185.39 93.5 185.42 93.54 185.43 93.55 185.47 93.61 185.5 93.67 185.54 93.76 185.58 93.87 185.63 94.05 185.67 94.26 185.68 94.29 185.68 94.31 185.68 94.33 185.71 94.51 185.71 94.62 185.71 94.63 185.71 94.66 185.7 94.67 185.7 94.69 185.7 94.71 185.7 94.73 185.7 94.75 185.7 94.77 185.69 94.79 185.69 94.81 185.69 94.83 185.69 94.85 185.69 94.87 185.69 94.89 185.68 94.91 185.68 94.93 185.68 94.94 185.68 94.97 185.68 94.98 185.68 95.01 185.67 95.02 185.67 95.05 185.67 95.06 185.67 95.09 185.66 95.1 185.66 95.13 185.66 95.14 185.66 95.17 185.66 95.18 185.66 95.2 185.66 95.22 185.66 95.25 185.65 95.26 185.65 95.29 185.65 95.3 185.65 95.33 185.64 95.34 185.64 95.36 185.64 95.38 185.64 95.41 185.64 95.42 185.64 95.44 185.63 95.46 185.63 95.48 185.63 95.5 185.63 95.52 185.63 95.54 185.63 95.56 185.62 95.58 185.62 95.6 185.62 95.62 185.62 95.64 185.62 95.66 185.62 95.68 185.61 95.7 185.61 95.72 185.61 95.73 185.61 95.76 185.61 95.77 185.61 95.8 185.6 95.81 185.6 95.84 185.6 95.85 185.6 95.88 185.59 95.89 185.59 95.92 185.59 95.93 185.59 95.96 185.59 95.97 185.59 96 185.59 96.01 185.59 96.03 185.58 96.05 185.58 96.08 185.58 96.09 185.58 96.11 185.57 96.13 185.57 96.16 185.57 96.17 185.57 96.19 185.57 96.21 185.57 96.24 185.56 96.25 185.56 96.28 185.56 96.29 185.56 96.31 185.56 96.33 185.56 96.36 185.55 96.37 185.55 96.39 185.55 96.41 185.55 96.44 185.55 96.45 185.55 96.47 185.54 96.48 185.54 96.51 185.54 96.52 185.54 96.55 185.54 96.56 185.54 96.59 185.53 96.6 185.53 96.63 185.53 96.64 185.53 96.67 185.53 96.68 185.53 96.71 185.52 96.72 185.52 96.75 185.52 96.76 185.52 96.79 185.52 96.8 185.52 96.83 185.51 96.84 185.51 96.87 185.51 96.88 185.51 96.91 185.51 96.92 185.51 96.94 185.5 96.96 185.5 96.99 185.5 97 185.5 97.03 185.5 97.04 185.5 97.06 185.49 97.08 185.49 97.1 185.49 97.12 185.49 97.14 185.48 97.16 185.48 97.18 185.48 97.2 185.48 97.22 185.48 97.24 185.48 97.26 185.47 97.28 185.47 97.3 185.47 97.32 185.47 97.34 185.47 97.35 185.47 97.38 185.46 97.39 185.46 97.42 185.46 97.43 185.46 97.46 185.46 97.47 185.46 97.5 185.45 97.51 185.45 97.54 185.45 97.55 185.45 97.58 185.45 97.59 185.45 97.62 185.44 97.63 185.44 97.66 185.44 97.67 185.44 97.7 185.44 97.71 185.44 97.74 185.43 97.75 185.43 97.78 185.43 97.79 185.43 97.82 185.43 97.83 185.43 97.86 185.42 97.87 185.42 97.89 185.42 97.91 185.42 97.93 185.41 97.95 185.41 97.97 185.41 97.99 185.41 98.02 185.41 98.03 185.41 98.05 185.41 98.06 185.41 98.09 185.4 98.1 185.4 98.13 185.4 98.14 185.4 98.17 185.4 98.18 185.4 98.21 185.39 98.22 185.39 98.25 185.39 98.26 185.39 98.29 185.38 98.3 185.38 98.33 185.38 98.34 185.38 98.37 185.38 98.38 185.38 98.41 185.37 98.42 185.37 98.45 185.37 98.46 185.37 98.49 185.37 98.5 185.37 98.53 185.36 98.54 185.36 98.57 185.36 98.58 185.36 98.61 185.36 98.62 185.36 98.64 185.35 98.66 185.35 98.69 185.35 98.7 185.35 98.72 185.35 98.74 185.35 98.77 185.34 98.78 185.34 98.8 185.34 98.81 185.34 98.84 185.34 98.86 185.34 98.88 185.33 98.89 185.33 98.92 185.33 98.93 185.33 98.96 185.33 98.98 185.33 99 185.32 99.01 185.32 99.04 185.32 99.05 185.32 99.08 185.31 99.09 185.31 99.12 185.31 99.13 185.31 99.16 185.31 99.17 185.31 99.2 185.31 99.21 185.31 99.24 185.3 99.25 185.3 99.28 185.3 99.29 185.3 99.32 185.29 99.33 185.29 99.36 185.29 99.37 185.29 99.4 185.29 99.41 185.29 99.44 185.28 99.45 185.28 99.47 185.28 99.49 185.28 99.52 185.28 99.53 185.28 99.55 185.27 99.57 185.27 99.59 185.27 99.61 185.27 99.63 185.27 99.65 185.27 99.67 185.26 99.69 185.26 99.71 185.26 99.73 185.26 99.75 185.26 99.76 185.26 99.79 185.25 99.81 185.25 99.83 185.25 99.84 185.25 99.87 185.25 99.89 185.25 99.91 185.24 99.92 185.24 99.95 185.24 99.96 185.24 99.99 185.24 100 185.24 100.03 185.23 100.04 185.23 100.07 185.23 100.08 185.23 100.11 185.23 100.12 185.23 100.14 185.22 100.16 185.22 100.19 185.22 100.2 185.22 100.22 185.22 100.24 185.22 100.27 185.21 100.28 185.21 100.3 185.21 100.32 185.21 100.34 185.2 100.36 185.2 100.38 185.2 100.4 185.2 100.42 185.2 100.44 185.2 100.46 185.19 100.48 185.19 100.5 185.19 100.52 185.19 100.54 185.19 100.56 185.19 100.58 185.18 100.59 185.18 100.62 185.18 100.64 185.18 100.66 185.18 100.67 185.18 100.7 185.17 100.71 185.17 100.74 185.17 100.75 185.17 100.78 185.17 100.79 185.17 100.82 185.16 100.83 185.16 100.86 185.16 100.87 185.16 100.9 185.16 100.91 185.16 100.94 185.15 100.95 185.15 100.97 185.15 100.99 185.15 101.02 185.15 101.03 185.15 101.07 185.15 101.11 185.17 101.13 185.18 101.14 185.2 101.15 185.26 101.15 185.3 101.14 185.37 101.12 186.92 100.46 187.3 100.28 187.38 100.24"/><path class="cls-11" d="M163.25,100.53l.1,0,0,0,0,0,0,0,0,0V98l0,0h.09l0,0,0,0h0l.32.69.24.48v0l0,0h0v0l0,0v.06l0,0v0h0l.13.22.06.11,0,.06.14.22h0l0,0h0l0,0h0v.06l.13.16.09.11v0h0l.11.11.07.07h0l.05.05h0l0,0h0v0h.08l.08.06.1.06,0,0,.05,0,.11,0,.13,0h.26l.22-.13.16-.1,0,0,.35-.23h0l0,0,0,0,0,0,0,0v-.14l-.25-.35h0l-.07-.1h0l-.07-.1h0l-.05-.08h0l-.24-.34h0l-.05-.08h0l-.06-.1h0l-.07-.1v0L166,98.9l-.16-.27-.1-.17,0,0v0h0l0,0v0l-.09-.17-.1-.21-.08-.2-.08-.24,0-.08v-.06h0v0h0v-.07l0,0,0-.05.05,0h0v0h0v0h0v0h0l.1-.08h0l.07,0h0l0,0h0l.16-.11,0,0,0,0,0,0,0,0,.29-.18,0,0h0l.07,0v0h0v0h.05l0,0h0l0,0h0l.05-.08.05-.1,0-.12,0-.12,0-.13,0-.16V95.4h0v0h0v-.29h0v0h0v0h0v0h0v0l0-.15,0-.09,0-.26-.06-.25-.08-.27-.08-.24-.1-.26-.12-.27v0l-.06-.11v0h0l-.09-.14,0-.06v0l-.08-.12h0l-.07-.08v0h0l-.08-.09-.1-.11h0l0,0h0l-.06-.06h0l-.07-.06-.1,0-.1,0-.1,0h-.18l-.06,0L165,92l-.12.08h0l-.05,0h0l0,0h0l-.06,0h0l-.05,0h0l0,0h0l0,0h0l0,0h0l0,0h0l0,0h0l-.05,0h0l-.05,0h0l-.05,0h0l0,0h0l-.05,0h0l-.06,0h0l0,0h0l-.05,0h0l0,0h0l-.06,0h0l0,0h0l0,0h0l0,0h0l-.07,0-.09-.23-.11-.25,0,0v0l-.06-.09h0v0l-.05-.06-.07-.08-.07-.06h0l-.1-.07-.11-.05-.06,0h-.23l-.05,0,0,0-1.55.93-.07,0,0,0,0,0v.13l0,0,0,0h.59l.06,0,.08,0,.07,0,0,0h0l0,0v0l0,0,0,0,0,.08,0,.06v2.1h0v2.14h0V99h0v1.07h0v1h0l1.23-.45Zm.26-6.32v-.08l0-.08.07-.15,0,0v0l0,0v0h0v0l.11-.18,0,0,0,0,.09-.13h0l.06-.08.06,0,0,0h.21l.07,0,.06,0,0,0h0l0,0,.07.08.06.07h0l0,.06.1.16.08.13v0l.09.21.07.15,0,.17,0,.11v0h0v0h0v.08h0v.08h0v.12h0V95h0v.07h0v.08h0v.22h0v.16h0v.21h0v0h0v0h0v0h0v0h0v.07h0v0h0v0h0v0h0v.12l0,.08,0,0v0l-.06.1h0l-.06.07-.08.09,0,0h0l-.06,0-.06,0-.05,0h-.85l-.08,0-.06,0-.06,0h0l0,0,0,0,0-.05V94.21Z"/></svg>