<svg id="Layer_1" data-name="Layer 1" xmlns="http://www.w3.org/2000/svg" xmlns:xlink="http://www.w3.org/1999/xlink" viewBox="0 0 400.7 117.45"><defs><style>.cls-1{fill:url(#linear-gradient);}.cls-2{fill:url(#linear-gradient-2);}.cls-3{fill:url(#linear-gradient-3);}.cls-4{fill:url(#linear-gradient-4);}.cls-5{fill:url(#linear-gradient-5);}.cls-6{fill:url(#linear-gradient-6);}.cls-7{fill:#e81c3d;}.cls-8{fill:#ffcc04;}.cls-9{fill:#f48220;}.cls-10{fill:#606464;}.cls-11{fill:#e6203e;}</style><linearGradient id="linear-gradient" x1="-17132.34" y1="50.71" x2="-17157.56" y2="50.71" gradientTransform="matrix(-1, 0, 0, 1, -17105.32, 0)" gradientUnits="userSpaceOnUse"><stop offset="0" stop-color="#600f40"/><stop offset="0.25" stop-color="#9c1c26"/><stop offset="0.75" stop-color="#e46626"/><stop offset="1" stop-color="#f68a25"/></linearGradient><linearGradient id="linear-gradient-2" x1="-17139.96" y1="55.5" x2="-17159.17" y2="55.5" xlink:href="#linear-gradient"/><linearGradient id="linear-gradient-3" x1="-17151.02" y1="56.34" x2="-17161.29" y2="56.34" xlink:href="#linear-gradient"/><linearGradient id="linear-gradient-4" x1="-17151.12" y1="44.8" x2="-17176.34" y2="44.8" gradientTransform="matrix(-1, 0, 0, 1, -17105.32, 0)" gradientUnits="userSpaceOnUse"><stop offset="0.01" stop-color="#f68a25"/><stop offset="0.25" stop-color="#e46626"/><stop offset="0.75" stop-color="#9c1c26"/><stop offset="1" stop-color="#600f40"/></linearGradient><linearGradient id="linear-gradient-5" x1="-17149.5" y1="40.01" x2="-17168.71" y2="40.01" xlink:href="#linear-gradient-4"/><linearGradient id="linear-gradient-6" x1="-17147.39" y1="39.17" x2="-17157.65" y2="39.17" xlink:href="#linear-gradient-4"/></defs><path class="cls-1" d="M52.24,48.93c-.56.4-.66,1.14-1.06,1.69-2.25,3.07-6.2,2.09-9.31,1.2-4.64-1.33-9-3.52-13.71-4.83-.31,0-1,4.5-1.15,5.14,4.74.27,9.34,1.64,14.05,2.11S51.09,54.76,52.24,48.93Z"/><path class="cls-2" d="M53.29,47.69c-.31,0-.17.4-.15.6.44,4.57-2.83,5.82-6.55,7.12-3.91,1.35-8.07,2.08-11.92,3.63-.28.4,1.64,3.55,1.69,4.27,3.46-2,7.21-3.52,10.7-5.47C50.94,55.68,55.44,52.91,53.29,47.69Z"/><path class="cls-3" d="M49.41,66.32c1.34-3.66,3.62-6.93,5.15-10.52,1.16-2.71,2.45-6.2.07-8.65-.25-.25-1.08-1-1.33-.79,3.14,3,1.06,6.15-.92,9-.83,1.2-6.67,8.35-6.68,8.91,0,.33,1.63,1.17,2,1.36S49.18,66.49,49.41,66.32Z"/><path class="cls-4" d="M45.8,46.58c.55-.4.65-1.14,1.05-1.69,2.25-3.07,6.2-2.09,9.31-1.2,4.64,1.33,9.06,3.52,13.71,4.83.31,0,1-4.5,1.15-5.14-4.74-.26-9.34-1.64-14-2.1S47,40.76,45.8,46.58Z"/><path class="cls-5" d="M44.74,47.82c.31,0,.17-.4.15-.6-.44-4.56,2.83-5.82,6.55-7.11,3.91-1.36,8.07-2.09,11.92-3.64.28-.4-1.64-3.55-1.69-4.27-3.46,2-7.21,3.53-10.7,5.47C47.1,39.83,42.59,42.6,44.74,47.82Z"/><path class="cls-6" d="M48.62,29.19c-1.34,3.66-3.62,6.94-5.15,10.52-1.16,2.71-2.44,6.2-.06,8.65.24.26,1.07,1,1.32.79-3.14-3-1.06-6.14.92-9,.83-1.2,6.68-8.35,6.68-8.91,0-.32-1.63-1.17-2-1.36S48.85,29,48.62,29.19Z"/><path class="cls-7" d="M49,78.82a31.14,31.14,0,0,1-31.08-31.2A31.08,31.08,0,1,1,71,69.68,30.78,30.78,0,0,1,49,78.82Zm0-60.54A29.34,29.34,0,1,0,78.23,47.62,29.3,29.3,0,0,0,49,18.28Z"/><path class="cls-8" d="M49,80.7a32.76,32.76,0,0,1-12.83-2.6A33.1,33.1,0,0,1,16.08,47.62h1.86a31.08,31.08,0,1,0,62.15,0H82A33.08,33.08,0,0,1,61.84,78.1,32.72,32.72,0,0,1,49,80.7Z"/><path class="cls-9" d="M82,47.62h-.69a32.08,32.08,0,0,0-32.08-32.2A32.13,32.13,0,0,0,19.64,35.1a32.08,32.08,0,0,0-2.88,12.52h-.68A32.82,32.82,0,0,1,19,34.83,32.91,32.91,0,0,1,36.44,17.32a32.7,32.7,0,0,1,25.51,0,32.93,32.93,0,0,1,20,30.3Z"/><path class="cls-7" d="M103.33,56.66a4.23,4.23,0,0,0,4.35,3.9,4.33,4.33,0,0,0,4.41-4.35V23.14h9.73V56.21a14.12,14.12,0,0,1-28,2.79Z"/><path class="cls-7" d="M147.24,44.67l22.89,24.19H156.58l-16-17v17H130.9V23.14h9.72V37.6L154.5,23.14h13.36Z"/><path class="cls-7" d="M193,23.14H206.9L218.77,56l12-32.81h13.81V68.86h-9.73V40.32L224.48,68.86H213.13L202.75,40.52V68.86H193Z"/><path class="cls-7" d="M265.66,23.14H277l16,45.72H282.58l-3.37-9.73H263.39L260,68.86H249.7Zm1.16,26.26h9l-4.48-13Z"/><path class="cls-7" d="M298,23.14h9.73V68.86H298Z"/><path class="cls-7" d="M326.94,33.71V68.86h-9.73V23.14h14.72l18.36,33.91V23.14H360V68.86H346Z"/><path class="cls-7" d="M370.07,23.14h9.73V68.86h-9.73Z"/><path class="cls-10" d="M150.45,81.17l-3.25,9.32h2.1l.69-2h3.23l.68,2H156l-3.26-9.32Zm.24,5.35.93-2.65.91,2.65Z"/><path class="cls-10" d="M214.1,86.92h1.79v.89a2.91,2.91,0,0,1-2.1.89,2.87,2.87,0,1,1,0-5.74A2.83,2.83,0,0,1,216,84l1.33-1.51a4.86,4.86,0,1,0-1.38,7.77l.38-.2h1.59V84.94H214.1Z"/><path class="cls-10" d="M227.24,84.05a2.89,2.89,0,0,0-2.88-2.88h-4.07v9.32h2V86.92h.88l1.95,3.57h2.27l-2-3.74A2.87,2.87,0,0,0,227.24,84.05Zm-2.88.89h-2.09V83.16h2.09a.89.89,0,1,1,0,1.78Z"/><path class="cls-10" d="M234,81a4.86,4.86,0,1,0,4.86,4.87A4.87,4.87,0,0,0,234,81Zm0,7.73a2.87,2.87,0,1,1,2.88-2.86A2.86,2.86,0,0,1,234,88.7Z"/><path class="cls-10" d="M247,86.72a2,2,0,0,1-4,0V81.17h-2v5.55a4,4,0,1,0,7.93,0V81.17h-2Z"/><path class="cls-10" d="M255.54,81.17h-4.07v9.32h2V86.92h2.09a2.88,2.88,0,1,0,0-5.75Zm0,3.77h-2.09V83.16h2.09a.89.89,0,1,1,0,1.78Z"/><path class="cls-10" d="M269.46,88.7a2.87,2.87,0,0,1,0-5.74,2.92,2.92,0,0,1,1.7.54l1.57-1.27a4.86,4.86,0,1,0,.29,6.92L271.37,88A2.85,2.85,0,0,1,269.46,88.7Z"/><path class="cls-10" d="M279.19,81a4.86,4.86,0,1,0,4.86,4.87A4.87,4.87,0,0,0,279.19,81Zm0,7.73a2.87,2.87,0,1,1,2.88-2.86A2.86,2.86,0,0,1,279.18,88.7Z"/><polygon class="cls-10" points="291.49 87.86 289.07 81.17 286.24 81.17 286.24 90.49 288.23 90.49 288.23 84.71 290.34 90.49 292.65 90.49 294.77 84.67 294.77 90.49 296.75 90.49 296.75 81.17 293.94 81.17 291.49 87.86"/><path class="cls-10" d="M303.45,81.17h-4.07v9.32h2V86.92h2.09a2.88,2.88,0,1,0,0-5.75Zm0,3.77h-2.09V83.16h2.09a.89.89,0,1,1,0,1.78Z"/><path class="cls-10" d="M309.71,81.17l-3.25,9.32h2.1l.69-2h3.22l.69,2h2.13L312,81.17Zm.24,5.35.92-2.65.91,2.65Z"/><polygon class="cls-10" points="323.7 88.08 319.96 81.17 316.96 81.17 316.96 90.49 318.94 90.49 318.94 83.33 322.83 90.49 325.68 90.49 325.68 81.17 323.7 81.17 323.7 88.08"/><polygon class="cls-10" points="333.81 81.17 331.65 84.71 329.51 81.17 327.2 81.17 330.77 87.04 330.77 90.49 332.75 90.49 332.75 86.71 336.12 81.17 333.81 81.17"/><path class="cls-11" d="M181.12,82.57l1-.95a.7.7,0,0,1,1.14,0c.25.27.47.57.73.89.34-.29.69-.58,1-.88.6-.54,1-.51,1.55.1a2.69,2.69,0,0,1,.65,2.24c-.12,1.14-.21,2.28-.32,3.43,0,.36-.07.73-.09,1.1,0,.61,0,.61.59.92l-2.37,1c.05-.64.08-1.18.12-1.71.14-1.61.29-3.21.41-4.82a2.41,2.41,0,0,0-.16-1,.57.57,0,0,0-1-.24,1.3,1.3,0,0,0-.53,1c0,1.75,0,3.49,0,5.24a.66.66,0,0,1-.36.65c-.36.19-.69.43-1.11.7,0-.28,0-.5,0-.71,0-2,0-3.92,0-5.88a2.25,2.25,0,0,0-.16-.77c-.12-.31-.37-.34-.63-.16a1.14,1.14,0,0,0-.48,1.07c0,1.74,0,3.49,0,5.24a.62.62,0,0,1-.36.64c-.37.19-.72.41-1.17.67V83.9c0-.8-.16-1-.94-1.2-.07,0-.16-.07-.17-.13a.22.22,0,0,1,.09-.2c.55-.3,1.1-.59,1.66-.85.09,0,.3.06.37.15A10.07,10.07,0,0,1,181.12,82.57Z"/><path class="cls-11" d="M161.64,90.32V84.76c0-.49,0-1,0-1.45,0-.65-.12-.79-.76-.86l-.25,0,0-.09a17.53,17.53,0,0,1,1.78-1.11c.33-.16.59.19.77.47a3.6,3.6,0,0,1,.23.51c.43-.29.85-.55,1.24-.84a.65.65,0,0,1,.95.06A4.13,4.13,0,0,1,166.7,85a1.32,1.32,0,0,1-.57.74c-1.14.82-1.17.62-.47,2a12.87,12.87,0,0,0,1.18,1.76c.17.24.15.37-.09.54-.83.61-1.24.55-1.84-.29a21.72,21.72,0,0,1-1.19-2c-.08-.13-.14-.27-.21-.4l-.11,0a2.47,2.47,0,0,0-.05.38c0,.55,0,1.11,0,1.66a.46.46,0,0,1-.36.53C162.56,90,162.14,90.14,161.64,90.32Zm1.76-5.78c0,.37,0,.74,0,1.11a.52.52,0,0,0,.28.37c1,.2,1.31,0,1.36-1.07a1.49,1.49,0,0,0,0-.21,2.71,2.71,0,0,0-.57-2c-.31-.35-.46-.32-.77.05C163.28,83.3,163.43,83.93,163.4,84.54Z"/><path class="cls-11" d="M199.07,79.88a4.79,4.79,0,0,1,2.14-.9l-.34.55c.3.28.61.58.93.86.65.55,1.33,1.06,1.94,1.64a2.38,2.38,0,0,1,.71,1.85c0,1.51,0,3,0,4.55a1.24,1.24,0,0,1-.86,1.31c-.58.22-1.16.44-1.75.62a1.17,1.17,0,0,1-1.47-.53,3.58,3.58,0,0,1-.58-2.26,15,15,0,0,1,.32-2.22,2.78,2.78,0,0,1,1.52-1.78c.95-.52.94-.56.12-1.25s-1.5-1.28-2.25-1.94A3.33,3.33,0,0,1,199.07,79.88Zm3.71,6.61h.07c0-.71,0-1.42,0-2.13a1.82,1.82,0,0,0-.22-.5,1.66,1.66,0,0,0-.49.28,1.45,1.45,0,0,0-.32.63c-.16.92-.33,1.84-.4,2.77a4,4,0,0,0,.24,1.48.78.78,0,0,0,.61.45c.3,0,.52-.25.52-.6Z"/><path class="cls-11" d="M175.32,90.47a2.76,2.76,0,0,1-.38-.58q-1.17-3.26-2.31-6.54a.65.65,0,0,0-.72-.51,1.1,1.1,0,0,1-.46-.18,1.27,1.27,0,0,1,.31-.34c.5-.27,1-.5,1.52-.77.32-.18.48-.14.61.24.61,1.83,1.25,3.66,1.88,5.49a1.25,1.25,0,0,0,.3.49l.3-1.25c.32-1.47.63-3,.95-4.43.1-.47.47-.74,1.1-.72,0,.23-.07.46-.13.68q-1.31,5-2.63,10a1.81,1.81,0,0,1-3.62-.19.46.46,0,0,1,.2-.34,11.23,11.23,0,0,1,1.25-.5c.07,0,.24.1.29.2s.09.4.21.55.38.45.54.42a.92.92,0,0,0,.61-.48,7.6,7.6,0,0,0,.31-1.27Z"/><path class="cls-11" d="M195.66,82.7c.38-.36.75-.68,1.1-1,.67-.68,1.08-.65,1.68.12a2.24,2.24,0,0,1,.51,1.85c-.12.87-.13,1.75-.2,2.62-.05.65-.12,1.3-.15,1.94,0,.39-.22.87.45,1l0,.1-1.95,1.13-.11-.11c0-.63.06-1.26.11-1.89l.24-2.88c.05-.56.11-1.12.14-1.69a3.59,3.59,0,0,0-.05-.8c-.13-.56-.56-.7-1-.34a2,2,0,0,0-.79,1.66c0,1.59,0,3.18,0,4.76a.7.7,0,0,1-.4.72,7.8,7.8,0,0,0-.71.46c-.27.17-.42.12-.41-.23s0-.79,0-1.19V83.72c0-.83-.15-1-1-1a.86.86,0,0,1-.29-.11c.06-.1.1-.25.19-.29a17.32,17.32,0,0,1,1.57-.74.52.52,0,0,1,.74.36C195.43,82.17,195.55,82.44,195.66,82.7Z"/><path class="cls-11" d="M167.11,83c.42-.55.76-1,1.13-1.47a.53.53,0,0,1,.35-.14c.63,0,1.25,0,1.87,0,.29,0,.39.12.44.38.5,2.28,1,4.57,1.54,6.85a5.86,5.86,0,0,0,.55,1.17l-.93.55a.39.39,0,0,1-.61-.15c-.14-.21-.3-.4-.47-.61a2,2,0,0,0-.17.2c-.44.68-.7.94-1.89.54a2.93,2.93,0,0,1-1.94-3,1.33,1.33,0,0,1,.62-1.06c.62-.4,1.25-.77,1.89-1.12.32-.18.49-.36.34-.74a5,5,0,0,1-.2-.87c-.07-.39-.3-.52-.68-.51C168.37,83,167.79,83,167.11,83Zm3.62,5.53c-.19-.9-.36-1.7-.54-2.5a.4.4,0,0,0-.27-.22,1.62,1.62,0,0,0-1.41,1.31,2.89,2.89,0,0,0,1.34,2.3c.07.06.32.05.36,0A9.47,9.47,0,0,0,170.73,88.49Z"/><path class="cls-11" d="M192.84,86c-.05.5-.13,1.22-.21,1.94a2.1,2.1,0,0,1-1.27,1.77c-.41.19-.8.43-1.21.6a1.26,1.26,0,0,1-1.63-.6,4.42,4.42,0,0,1-.61-2.13,11,11,0,0,1,.3-3.71,3.8,3.8,0,0,1,2.42-2.44,1,1,0,0,1,1,.17,2.7,2.7,0,0,1,1,2C192.76,84.36,192.78,85.08,192.84,86Zm-1.41-.11c-.16-.93-.3-1.9-.51-2.86-.06-.25-.33-.45-.51-.67-.17.23-.45.43-.5.68a15.83,15.83,0,0,0-.39,2.37,8.84,8.84,0,0,0,.33,3.31c.09.29.34.72.56.75.42.05.51-.45.57-.76C191.17,87.82,191.28,86.9,191.43,85.91Z"/></svg>